<?xml version="1.0" encoding="UTF-8"?>
<svg width="230px" height="36px" viewBox="0 0 230 36" version="1.1" xmlns="http://www.w3.org/2000/svg" xmlns:xlink="http://www.w3.org/1999/xlink">
    <title>stormbreaker</title>
    <desc>Created with Sketch.</desc>
    <defs>
        <radialGradient cx="53.1769443%" cy="38.8887276%" fx="53.1769443%" fy="38.8887276%" r="114.450922%" gradientTransform="translate(0.531769,0.388887),scale(1.000000,0.873737),rotate(90.000000),translate(-0.531769,-0.388887)" id="radialGradient-1">
            <stop stop-color="#41E9FF" offset="0%"></stop>
            <stop stop-color="#003D85" offset="100%"></stop>
        </radialGradient>
        <path d="M13.4929956,2.43810074 L13.5730057,2.45024786 L15.3521575,6.35454271 L17.5785001,8.59118064 L18.4314998,8.07351214 L21.3915023,10.2494837 L20.7387372,11.3674018 L26.7868923,13.159064 L27.5253578,13.5161136 L27.5253578,14.2935517 L26.7868923,16.7883558 L25.3297179,18.6238474 L23.681653,18.6238474 L18.4314998,15.4801538 L18.4314998,15.8355999 L17.5785001,16.7883558 L13.5730057,24.9024153 L10.4416023,32.4461576 L10.0878544,32.9069012 L7.90796622,31.924213 L7.90796622,31.0674008 L12.049845,21.3252378 L13.5730057,18.6238474 L14.33212,17.3450432 L14.8302124,15.8355999 L15.3521575,14.7494848 L14.33212,14.2935517 C13.3280522,14.5910809 12.3749047,14.9866149 11.4726774,15.4801538 C10.5704501,15.9736926 9.66414347,16.5953224 8.75375749,17.3450432 C8.18989664,15.6324011 7.90796622,13.9314267 7.90796622,12.2421199 L7.91303421,11.407527 C7.93186737,10.1945145 8.01233255,9.79757412 8.29992091,9.10961168 L8.75375749,8.07351214 C9.51626226,6.3168479 9.98509026,5.76547915 11.4726774,4.02971138 C11.6009043,3.88009182 11.7242561,3.74101594 11.8427327,3.61248374 L12.7297835,4.9092118 L11.9571468,3.49003723 L12.1520028,3.28984018 L12.1520028,3.28984018 L12.1277767,3.31747669 L13.1812225,4.85900059 L12.2660139,3.1781377 C12.7421776,2.7207166 13.1203956,2.47512743 13.4006679,2.44137019 L13.4929956,2.43810074 Z M20.9075206,14.9315243 L22.0587538,15.8607619 L24.2407605,16.7899996 L20.9075206,14.9315243 Z M20.2120971,13.0101728 L21.2482448,13.9682738 L24.9021272,14.9263748 L20.2120971,13.0101728 Z M10.7829128,9.70292053 L11.9341461,10.6321582 L14.1161527,11.5613959 L10.7829128,9.70292053 Z M11.5115,8.62348684 L14.9512648,10.0580994 L13.2313824,8.96583756 L11.5115,8.62348684 Z" id="path-2"></path>
        <filter x="-10.2%" y="-3.3%" width="120.4%" height="113.1%" filterUnits="objectBoundingBox" id="filter-3">
            <feOffset dx="0" dy="1" in="SourceAlpha" result="shadowOffsetOuter1"></feOffset>
            <feGaussianBlur stdDeviation="0.5" in="shadowOffsetOuter1" result="shadowBlurOuter1"></feGaussianBlur>
            <feColorMatrix values="0 0 0 0 0   0 0 0 0 0   0 0 0 0 0  0 0 0 0.297803759 0" type="matrix" in="shadowBlurOuter1"></feColorMatrix>
        </filter>
    </defs>
    <g id="stormbreaker" stroke="none" stroke-width="1" fill="none" fill-rule="evenodd">
        <g id="Group-Copy">
            <path d="M0.596547285,1.282832 L15.75,0 L30.904514,1.28292184 C31.237779,1.31113475 31.4900206,1.59630299 31.4773375,1.9305195 L30.3045804,32.8341642 C30.2934992,33.1261674 30.0818977,33.3716721 29.7947243,33.4257104 L16.1142726,36 L1.76629113,33.422251 C1.47719304,33.3703119 1.26306822,33.1243803 1.25140757,32.8308851 L0.023767036,1.9315425 C0.0104723211,1.59691852 0.262852917,1.31108125 0.596547285,1.282832 Z" id="Rectangle" fill="url(#radialGradient-1)"></path>
            <g id="Shape">
                <use fill="black" fill-opacity="1" filter="url(#filter-3)" xlink:href="#path-2"></use>
                <use fill="#FFFFFF" fill-rule="evenodd" xlink:href="#path-2"></use>
            </g>
        </g>
        <text id="Stormbreaker" font-family="NunitoSans-Bold, Nunito Sans" font-size="28" font-weight="bold" letter-spacing="1.214095" fill="#1A1A1A">
            <tspan x="38" y="27">Stormbreaker</tspan>
        </text>
    </g>
</svg>