<svg width="205" height="32" xmlns="http://www.w3.org/2000/svg"><g fill="none" fill-rule="evenodd"><path d="M3.351 2.077L14.5 1l10.566 1.02a1 1 0 01.903 1.03l-.846 25.435a.375.375 0 01-.296.354L14.766 31 4.699 28.936a1 1 0 01-.798-.945L3.012 2.464a.375.375 0 01.339-.387z" fill="#03A9F4"/><path d="M9.38 4.856l6.2 3.6 6.728 1.406a.446.446 0 01.34.552l-.785 2.926a.446.446 0 01-.562.311l-6.568-2.023-1.38.035-5.838.152A8.516 8.516 0 019.23 5.043l.149-.187z" fill="#FFF"/><path d="M16.417 7.996l1.25.594c.194.092.295.31.24.518L13.46 25.703a.446.446 0 01-.598.298l-1.97-.795a.446.446 0 01-.26-.548L15.8 8.265a.446.446 0 01.617-.269z" fill="#FFF"/><path d="M9.802 5.107l-.144.203a9.326 9.326 0 00-1.652 6.502h0" stroke="#03A9F4" stroke-width=".1"/><path d="M41.872 26.384c1.168 0 2.196-.136 3.084-.408.888-.272 1.632-.652 2.232-1.14a4.745 4.745 0 001.356-1.74c.304-.672.456-1.4.456-2.184 0-.96-.204-1.748-.612-2.364a5.112 5.112 0 00-1.452-1.476 6.383 6.383 0 00-1.692-.804 16.312 16.312 0 00-1.332-.348 264.34 264.34 0 01-2.604-.672c-.664-.176-1.184-.352-1.56-.528-.376-.176-.628-.368-.756-.576-.128-.208-.192-.48-.192-.816 0-.368.08-.672.24-.912.16-.24.364-.44.612-.6a2.44 2.44 0 01.828-.336c.304-.064.608-.096.912-.096.464 0 .892.04 1.284.12.392.08.74.216 1.044.408.304.192.548.456.732.792.184.336.292.76.324 1.272h3.648c0-.992-.188-1.836-.564-2.532a4.917 4.917 0 00-1.524-1.716 6.435 6.435 0 00-2.196-.972c-.824-.2-1.684-.3-2.58-.3a8.78 8.78 0 00-2.304.312 6.432 6.432 0 00-2.064.96 5.11 5.11 0 00-1.476 1.62c-.376.648-.564 1.412-.564 2.292 0 .784.148 1.452.444 2.004a4.238 4.238 0 001.164 1.38c.48.368 1.024.668 1.632.9a16.41 16.41 0 001.872.588c.624.176 1.24.336 1.848.48.608.144 1.152.312 1.632.504s.868.432 1.164.72c.296.288.444.664.444 1.128 0 .432-.112.788-.336 1.068-.224.28-.504.5-.84.66-.336.16-.696.268-1.08.324a7.506 7.506 0 01-1.08.084c-.496 0-.976-.06-1.44-.18a3.584 3.584 0 01-1.212-.552 2.726 2.726 0 01-.828-.972c-.208-.4-.312-.888-.312-1.464h-3.648c-.016 1.056.176 1.968.576 2.736.4.768.94 1.4 1.62 1.896.68.496 1.464.86 2.352 1.092.888.232 1.804.348 2.748.348zm14.865-.264c.336 0 .68-.008 1.032-.024a8.11 8.11 0 00.96-.096v-2.64c-.16.032-.328.056-.504.072-.176.016-.36.024-.552.024-.576 0-.96-.096-1.152-.288-.192-.192-.288-.576-.288-1.152v-6.144h2.496v-2.28h-2.496v-3.72h-3.408v3.72H50.76v2.28h2.064v7.32c0 .624.104 1.128.312 1.512.208.384.492.68.852.888.36.208.776.348 1.248.42.472.072.972.108 1.5.108zm10.688.192c.976 0 1.86-.152 2.652-.456a5.648 5.648 0 002.028-1.308 5.831 5.831 0 001.296-2.052c.304-.8.456-1.696.456-2.688 0-.992-.152-1.892-.456-2.7a5.81 5.81 0 00-1.296-2.064 5.784 5.784 0 00-2.028-1.32c-.792-.312-1.676-.468-2.652-.468-.976 0-1.856.156-2.64.468a5.808 5.808 0 00-2.016 1.32 5.81 5.81 0 00-1.296 2.064c-.304.808-.456 1.708-.456 2.7 0 .992.152 1.888.456 2.688.304.8.736 1.484 1.296 2.052a5.67 5.67 0 002.016 1.308c.784.304 1.664.456 2.64.456zm0-2.544c-.576 0-1.056-.112-1.44-.336a2.62 2.62 0 01-.924-.9 3.868 3.868 0 01-.492-1.272 7.447 7.447 0 010-2.916c.096-.48.26-.904.492-1.272.232-.368.54-.668.924-.9.384-.232.864-.348 1.44-.348s1.06.116 1.452.348c.392.232.704.532.936.9.232.368.396.792.492 1.272a7.447 7.447 0 010 2.916c-.096.472-.26.896-.492 1.272a2.59 2.59 0 01-.936.9c-.392.224-.876.336-1.452.336zM80.514 26v-5.592c0-.56.056-1.08.168-1.56.112-.48.3-.9.564-1.26.264-.36.612-.644 1.044-.852.432-.208.96-.312 1.584-.312.208 0 .424.012.648.036.224.024.416.052.576.084v-3.168c-.272-.08-.52-.12-.744-.12a4.07 4.07 0 00-1.248.192c-.4.128-.776.308-1.128.54a4.245 4.245 0 00-.936.84 4.191 4.191 0 00-.648 1.068h-.048v-2.304h-3.24V26h3.408zm10.473 0v-7.2c0-.608.088-1.1.264-1.476.176-.376.388-.664.636-.864.248-.2.504-.336.768-.408.264-.072.476-.108.636-.108.544 0 .956.092 1.236.276.28.184.48.428.6.732s.188.636.204.996c.016.36.024.724.024 1.092V26h3.408v-6.912c0-.384.028-.764.084-1.14.056-.376.168-.712.336-1.008a2 2 0 01.696-.72c.296-.184.684-.276 1.164-.276.48 0 .86.08 1.14.24.28.16.492.376.636.648.144.272.232.592.264.96s.048.76.048 1.176V26h3.408v-8.304c0-.8-.112-1.484-.336-2.052-.224-.568-.536-1.028-.936-1.38-.4-.352-.88-.608-1.44-.768a6.618 6.618 0 00-1.824-.24c-.864 0-1.612.208-2.244.624-.632.416-1.132.896-1.5 1.44-.336-.768-.828-1.304-1.476-1.608a4.994 4.994 0 00-2.148-.456c-.816 0-1.54.176-2.172.528a4.853 4.853 0 00-1.62 1.488h-.048v-1.68h-3.216V26h3.408zm26.648.312a4.724 4.724 0 003.492-1.56c.488-.528.884-1.204 1.188-2.028.304-.824.456-1.804.456-2.94s-.152-2.116-.456-2.94c-.304-.824-.7-1.5-1.188-2.028a4.732 4.732 0 00-3.492-1.56c-.768 0-1.508.148-2.22.444a3.636 3.636 0 00-1.692 1.404h-.048v-6.24h-3.408V26h3.24v-1.584h.048a3.107 3.107 0 001.632 1.464c.72.288 1.536.432 2.448.432zm-1.176-2.544c-.496 0-.928-.108-1.296-.324a2.725 2.725 0 01-.912-.876 3.95 3.95 0 01-.528-1.272 6.527 6.527 0 01-.168-1.488c0-.528.056-1.032.168-1.512a3.95 3.95 0 01.528-1.272c.24-.368.544-.66.912-.876.368-.216.8-.324 1.296-.324.512 0 .948.108 1.308.324.36.216.66.508.9.876s.416.792.528 1.272c.112.48.168.984.168 1.512 0 .512-.056 1.008-.168 1.488a3.95 3.95 0 01-.528 1.272c-.24.368-.54.66-.9.876-.36.216-.796.324-1.308.324zM129.38 26v-5.592c0-.56.057-1.08.169-1.56.112-.48.3-.9.564-1.26.264-.36.612-.644 1.044-.852.432-.208.96-.312 1.584-.312.208 0 .424.012.648.036.224.024.416.052.576.084v-3.168c-.272-.08-.52-.12-.744-.12a4.07 4.07 0 00-1.248.192c-.4.128-.776.308-1.128.54a4.245 4.245 0 00-.936.84 4.191 4.191 0 00-.648 1.068h-.048v-2.304h-3.24V26h3.408zm12.274.312c1.408 0 2.608-.32 3.6-.96.992-.64 1.728-1.704 2.208-3.192h-3c-.112.384-.416.748-.912 1.092-.496.344-1.088.516-1.776.516-.96 0-1.696-.248-2.208-.744-.512-.496-.792-1.296-.84-2.4h8.952a8.76 8.76 0 00-.24-2.76 6.756 6.756 0 00-1.092-2.352 5.508 5.508 0 00-1.932-1.644c-.784-.408-1.704-.612-2.76-.612-.944 0-1.804.168-2.58.504a6.1 6.1 0 00-2.004 1.38 6.083 6.083 0 00-1.296 2.076 7.237 7.237 0 00-.456 2.592c0 .96.148 1.84.444 2.64.296.8.716 1.488 1.26 2.064a5.49 5.49 0 001.992 1.332c.784.312 1.664.468 2.64.468zm2.616-7.848h-5.544c.016-.24.068-.512.156-.816.088-.304.24-.592.456-.864.216-.272.504-.5.864-.684.36-.184.812-.276 1.356-.276.832 0 1.452.224 1.86.672.408.448.692 1.104.852 1.968zm10.16 7.848c.768 0 1.52-.112 2.256-.336a4.441 4.441 0 001.92-1.176 5.12 5.12 0 00.24 1.2h3.456c-.16-.256-.272-.64-.336-1.152a12.966 12.966 0 01-.096-1.608v-6.456c0-.752-.168-1.356-.504-1.812a3.452 3.452 0 00-1.296-1.068 5.8 5.8 0 00-1.752-.516 13.907 13.907 0 00-1.896-.132c-.688 0-1.372.068-2.052.204a5.857 5.857 0 00-1.836.684c-.544.32-.992.744-1.344 1.272-.352.528-.552 1.192-.6 1.992h3.408c.064-.672.288-1.152.672-1.44.384-.288.912-.432 1.584-.432.304 0 .588.02.852.06.264.04.496.12.696.24.2.12.36.288.48.504.12.216.18.508.18.876.016.352-.088.62-.312.804-.224.184-.528.324-.912.42a9.093 9.093 0 01-1.32.216c-.496.048-1 .112-1.512.192s-1.02.188-1.524.324-.952.34-1.344.612a3.11 3.11 0 00-.96 1.092c-.248.456-.372 1.036-.372 1.74 0 .64.108 1.192.324 1.656.216.464.516.848.9 1.152.384.304.832.528 1.344.672a6.095 6.095 0 001.656.216zm1.272-2.256a4.29 4.29 0 01-.792-.072 1.925 1.925 0 01-.672-.252 1.288 1.288 0 01-.456-.492c-.112-.208-.168-.464-.168-.768 0-.32.056-.584.168-.792.112-.208.26-.38.444-.516s.4-.244.648-.324c.248-.08.5-.144.756-.192.272-.048.544-.088.816-.12.272-.032.532-.072.78-.12s.48-.108.696-.18c.216-.072.396-.172.54-.3V21.2c0 .192-.02.448-.06.768-.04.32-.148.636-.324.948-.176.312-.448.58-.816.804-.368.224-.888.336-1.56.336zM169.27 26v-4.272l1.32-1.272L173.998 26h4.128l-5.208-7.848 4.68-4.56h-4.032l-4.296 4.464V8.864h-3.408V26h3.408zm16.833.312c1.408 0 2.608-.32 3.6-.96.992-.64 1.728-1.704 2.208-3.192h-3c-.112.384-.416.748-.912 1.092-.496.344-1.088.516-1.776.516-.96 0-1.696-.248-2.208-.744-.512-.496-.792-1.296-.84-2.4h8.952a8.76 8.76 0 00-.24-2.76 6.756 6.756 0 00-1.092-2.352 5.508 5.508 0 00-1.932-1.644c-.784-.408-1.704-.612-2.76-.612-.944 0-1.804.168-2.58.504a6.1 6.1 0 00-2.004 1.38 6.083 6.083 0 00-1.296 2.076 7.237 7.237 0 00-.456 2.592c0 .96.148 1.84.444 2.64.296.8.716 1.488 1.26 2.064a5.49 5.49 0 001.992 1.332c.784.312 1.664.468 2.64.468zm2.616-7.848h-5.544c.016-.24.068-.512.156-.816.088-.304.24-.592.456-.864.216-.272.504-.5.864-.684.36-.184.812-.276 1.356-.276.832 0 1.452.224 1.86.672.408.448.692 1.104.852 1.968zM198.59 26v-5.592c0-.56.056-1.08.168-1.56.112-.48.3-.9.564-1.26.264-.36.612-.644 1.044-.852.432-.208.96-.312 1.584-.312.208 0 .424.012.648.036.224.024.416.052.576.084v-3.168c-.272-.08-.52-.12-.744-.12a4.07 4.07 0 00-1.248.192c-.4.128-.776.308-1.128.54a4.245 4.245 0 00-.936.84 4.191 4.191 0 00-.648 1.068h-.048v-2.304h-3.24V26h3.408z" fill="#1A1A1A" fill-rule="nonzero"/></g></svg>

